<svg width="95" height="20" viewBox="0 0 95 20" fill="none" xmlns="http://www.w3.org/2000/svg">
<path d="M48.101 2.50749C47.6562 2.50749 47.2708 2.65285 46.9446 2.91451C46.6184 3.20523 46.4702 3.58317 46.4702 4.04833C46.4702 4.51349 46.6184 4.89143 46.9446 5.15308C47.2708 5.41473 47.6562 5.56009 48.101 5.56009C48.5458 5.56009 48.9016 5.41473 49.2278 5.15308C49.554 4.89143 49.7022 4.51349 49.7022 4.04833C49.7022 3.58317 49.554 3.17616 49.2278 2.91451C48.9016 2.65285 48.5162 2.50749 48.101 2.50749Z" fill="white" fill-opacity="0.7"/>
<path d="M49.4353 6.89735H46.7667V17.1599H49.4353V6.89735Z" fill="white" fill-opacity="0.7"/>
<path d="M68.0567 15.0087C67.8788 15.0378 67.6416 15.0959 67.3747 15.125C67.0485 15.1541 66.663 15.1831 66.2183 15.1831C65.5066 15.1831 64.9136 15.0668 64.3798 14.8343C63.8757 14.6017 63.431 14.2819 63.0751 13.8749C62.7193 13.4679 62.4525 12.9736 62.2745 12.3922C62.0966 11.8107 62.0077 11.1421 62.0077 10.4443C62.0077 8.96165 62.3931 7.79875 63.1344 6.95565C63.8757 6.14163 64.9729 5.70554 66.3665 5.70554C67.0189 5.70554 67.6416 5.79276 68.2346 5.93812C68.8276 6.08348 69.3317 6.28699 69.7172 6.51957L69.8358 6.57771L70.6957 4.39729L70.6068 4.33914C70.5178 4.281 70.3399 4.19378 70.1027 4.07749C69.8655 3.9612 69.5393 3.84491 69.1835 3.72862C68.8276 3.61233 68.3829 3.52512 67.8788 3.4379C67.3747 3.35068 66.7817 3.32161 66.1293 3.32161C65.1804 3.32161 64.2612 3.46697 63.4013 3.78677C62.5414 4.10656 61.8001 4.57172 61.1774 5.15317C60.5547 5.76369 60.0506 6.51957 59.6948 7.36267C59.339 8.23484 59.1611 9.25237 59.1611 10.3571C59.1611 11.4909 59.339 12.4794 59.6652 13.3516C59.9913 14.2237 60.4658 14.9506 61.0588 15.5611C61.6518 16.1716 62.3931 16.6368 63.2234 16.9275C64.0833 17.2473 65.0322 17.3926 66.0403 17.3926C67.1375 17.3926 68.116 17.3054 68.9462 17.1601C69.7765 17.0147 70.3992 16.8693 70.755 16.724L70.8143 16.6949V10.1827H68.0567V15.0087Z" fill="white" fill-opacity="0.7"/>
<path d="M83.0312 6.89735H80.3625V17.1599H83.0312V6.89735Z" fill="white" fill-opacity="0.7"/>
<path d="M81.6967 2.50749C81.2519 2.50749 80.8664 2.65285 80.5402 2.91451C80.2141 3.20523 80.0658 3.58317 80.0658 4.04833C80.0658 4.51349 80.2141 4.89143 80.5402 5.15308C80.8664 5.41473 81.2519 5.56009 81.6967 5.56009C82.1414 5.56009 82.4973 5.41473 82.8234 5.15308C83.1496 4.89143 83.2979 4.51349 83.2979 4.04833C83.2979 3.58317 83.1496 3.17616 82.8234 2.91451C82.4973 2.65285 82.1118 2.50749 81.6967 2.50749Z" fill="white" fill-opacity="0.7"/>
<path fill-rule="evenodd" clip-rule="evenodd" d="M38.5233 3.64142H39.5908L39.6204 3.69957L45.5805 17.1891H42.6746L42.6449 17.131L41.3106 14.0493H35.4395L34.1051 17.1601H31.2289L31.2882 17.0147L37.1889 3.61235H38.5233V3.64142ZM38.3749 7.24639L36.5364 11.491H40.2133L38.3749 7.24639Z" fill="white" fill-opacity="0.7"/>
<path d="M51.6889 7.59527L51.6296 7.62434V17.1892H54.2983V9.48498C54.7135 9.36869 56.3443 9.19425 57.3525 9.22332H57.4711V6.75217H57.3525C54.6542 6.7231 52.9936 6.98475 51.6889 7.59527Z" fill="white" fill-opacity="0.7"/>
<path fill-rule="evenodd" clip-rule="evenodd" d="M91.571 7.18821V3.52509V3.49602H94.2101V16.8402L94.1211 16.8693C93.6467 17.0147 93.024 17.131 92.2827 17.2472C91.5414 17.3635 90.7408 17.4217 89.9402 17.4217C89.1099 17.4217 88.339 17.2763 87.657 17.0437C87.0046 16.7821 86.4116 16.4332 85.9371 15.9681C85.4627 15.5029 85.1069 14.9505 84.84 14.2819C84.5731 13.6423 84.4545 12.8864 84.4545 12.0724C84.4545 11.2583 84.5731 10.5315 84.7807 9.86287C84.9883 9.22327 85.3144 8.64183 85.7296 8.17667C86.1447 7.68244 86.6488 7.33357 87.2418 7.07192C87.8349 6.81027 88.5169 6.69398 89.2878 6.69398C89.8216 6.69398 90.2663 6.75212 90.6815 6.86841C91.0076 6.95563 91.3042 7.07192 91.571 7.18821ZM91.571 15.0668V9.42672C91.3635 9.31043 91.0966 9.19414 90.7704 9.07785C90.4443 8.96156 90.0588 8.90341 89.6733 8.90341C88.8134 8.90341 88.1907 9.16506 87.8052 9.71744C87.4198 10.2698 87.2122 11.0548 87.2122 12.0142C87.2122 13.0317 87.4494 13.8166 87.9535 14.369C88.4279 14.9214 89.1396 15.2121 89.9995 15.2121C90.385 15.2121 90.7111 15.183 90.978 15.154C91.2152 15.1249 91.4228 15.0958 91.571 15.0668Z" fill="white" fill-opacity="0.7"/>
<path d="M73.0087 7.56608L72.9494 7.59515V17.16H75.6181V9.45578C76.0332 9.33949 77.6641 9.16506 78.6722 9.19413H78.7908V6.72298H78.6722C75.9443 6.72298 74.3134 6.95556 73.0087 7.56608Z" fill="white" fill-opacity="0.7"/>
<path d="M6.33186 15.4491L3.47333 20H9.25187L12.1411 15.4491H6.33186Z" fill="white" fill-opacity="0.7"/>
<path d="M19.3951 15.4491L16.5058 20H22.3151L25.2044 15.4491H19.3951Z" fill="white" fill-opacity="0.7"/>
<path d="M25.2043 14.8503L15.7988 0H9.98956L19.3951 14.8503H25.2043Z" fill="white" fill-opacity="0.7"/>
<path d="M6.54706 4.85037L15.9526 19.7306L18.8726 15.1498L9.43633 0.269516L6.54706 4.85037Z" fill="white" fill-opacity="0.7"/>
<path d="M6.178 5.41913L3.258 9.99998L6.33169 14.8503H12.141L6.178 5.41913Z" fill="white" fill-opacity="0.7"/>
<path d="M2.92001 19.7307L5.80928 15.1498L2.92001 10.569L0 15.1498L2.92001 19.7307Z" fill="white" fill-opacity="0.7"/>
</svg>
