<svg width="12" height="12" viewBox="0 0 12 12" fill="none" xmlns="http://www.w3.org/2000/svg">
<path d="M4.81055 11.0957C5.2207 11.0957 5.54297 10.9375 5.76562 10.6094L11.2207 2.29492C11.3789 2.05469 11.4434 1.82617 11.4434 1.61523C11.4434 1.04688 11.0098 0.625 10.4238 0.625C10.0254 0.625 9.77344 0.771484 9.52734 1.15234L4.78711 8.62891L2.38477 5.68164C2.16211 5.41211 1.91602 5.29492 1.57617 5.29492C0.984375 5.29492 0.556641 5.7168 0.556641 6.29102C0.556641 6.54883 0.632812 6.77148 0.855469 7.02344L3.87891 10.6562C4.13086 10.9551 4.42383 11.0957 4.81055 11.0957Z" fill="#2C5EF6"/>
</svg>
