<svg width="10" height="12" viewBox="0 0 10 12" fill="none" xmlns="http://www.w3.org/2000/svg">
<path d="M1.13281 9.75391C0.769531 9.75391 0.505859 10.0234 0.505859 10.3926C0.505859 10.7617 0.769531 11.0312 1.13281 11.0312H8.85547C9.22461 11.0312 9.49414 10.7617 9.49414 10.3926C9.49414 10.0234 9.22461 9.75391 8.85547 9.75391H5.13477C5.26953 9.72461 5.38672 9.6543 5.48633 9.55469L9.21875 5.86328C9.35938 5.72266 9.42969 5.55859 9.42969 5.38867C9.42969 5.01953 9.16016 4.75 8.80273 4.75C8.61523 4.75 8.45117 4.82617 8.33398 4.94336L7.13281 6.12695L5.5918 7.81445L5.65039 6.58398V1.17578C5.65039 0.777344 5.38672 0.513672 5 0.513672C4.61328 0.513672 4.34375 0.777344 4.34375 1.17578V6.58398L4.4082 7.82031L2.86719 6.12695L1.67188 4.94336C1.54883 4.82617 1.38477 4.75 1.20312 4.75C0.839844 4.75 0.576172 5.01953 0.576172 5.38867C0.576172 5.55859 0.646484 5.72266 0.787109 5.86328L4.51367 9.55469C4.61328 9.6543 4.73047 9.72461 4.85938 9.75391H1.13281Z" fill="white"/>
</svg>
