<svg width="10" height="9" viewBox="0 0 10 9" fill="none" xmlns="http://www.w3.org/2000/svg">
<path d="M4.00879 8.91309C4.35059 8.91309 4.61914 8.78125 4.80469 8.50781L9.35059 1.5791C9.48242 1.37891 9.53613 1.18848 9.53613 1.0127C9.53613 0.539062 9.1748 0.1875 8.68652 0.1875C8.35449 0.1875 8.14453 0.30957 7.93945 0.626953L3.98926 6.85742L1.9873 4.40137C1.80176 4.17676 1.59668 4.0791 1.31348 4.0791C0.820312 4.0791 0.463867 4.43066 0.463867 4.90918C0.463867 5.12402 0.527344 5.30957 0.712891 5.51953L3.23242 8.54688C3.44238 8.7959 3.68652 8.91309 4.00879 8.91309Z" fill="#2C5EF6"/>
</svg>
