<svg width="12" height="6" viewBox="0 0 12 6" fill="none" xmlns="http://www.w3.org/2000/svg">
<path d="M6 0.00781302C5.79492 0.0136724 5.60742 0.0898443 5.45508 0.253907L1.00195 4.8125C0.873047 4.94141 0.802734 5.10547 0.802734 5.29883C0.802734 5.68555 1.10742 5.99609 1.49414 5.99609C1.68164 5.99609 1.86328 5.91992 1.99805 5.78516L5.99414 1.67773L10.002 5.78516C10.1367 5.91406 10.3125 5.99609 10.5059 5.99609C10.8926 5.99609 11.1973 5.68555 11.1973 5.29883C11.1973 5.10547 11.127 4.94141 10.998 4.8125L6.53906 0.253907C6.38086 0.0898442 6.20508 0.00781301 6 0.00781302Z" fill="#2C5EF6"/>
</svg>
