<svg width="14" height="12" viewBox="0 0 14 12" fill="none" xmlns="http://www.w3.org/2000/svg">
<path d="M13.8125 1.5625C13.8438 1.5625 13.875 1.5625 13.9375 1.5C13.9688 1.46875 14 1.4375 14 1.375V0.625C14 0.59375 13.9688 0.5625 13.9375 0.5C13.875 0.46875 13.8438 0.4375 13.8125 0.4375H0.1875C0.125 0.4375 0.09375 0.46875 0.0625 0.5C0 0.5625 0 0.59375 0 0.625V1.375C0 1.4375 0 1.46875 0.0625 1.5C0.09375 1.5625 0.125 1.5625 0.1875 1.5625H13.8125ZM13.8125 6.5625C13.8438 6.5625 13.875 6.5625 13.9375 6.5C13.9688 6.46875 14 6.4375 14 6.375V5.625C14 5.59375 13.9688 5.5625 13.9375 5.5C13.875 5.46875 13.8438 5.4375 13.8125 5.4375H0.1875C0.125 5.4375 0.09375 5.46875 0.0625 5.5C0 5.5625 0 5.59375 0 5.625V6.375C0 6.4375 0 6.46875 0.0625 6.5C0.09375 6.5625 0.125 6.5625 0.1875 6.5625H13.8125ZM13.8125 11.5625C13.8438 11.5625 13.875 11.5625 13.9375 11.5C13.9688 11.4688 14 11.4375 14 11.375V10.625C14 10.5938 13.9688 10.5625 13.9375 10.5C13.875 10.4688 13.8438 10.4375 13.8125 10.4375H0.1875C0.125 10.4375 0.09375 10.4688 0.0625 10.5C0 10.5625 0 10.5938 0 10.625V11.375C0 11.4375 0 11.4688 0.0625 11.5C0.09375 11.5625 0.125 11.5625 0.1875 11.5625H13.8125Z" fill="#2C5EF6"/>
</svg>
