<svg width="14" height="9" viewBox="0 0 14 9" fill="none" xmlns="http://www.w3.org/2000/svg">
<path d="M7 0.97754C6.63769 0.984376 6.34375 1.11426 6.05664 1.4082L1.03223 6.55567C0.813476 6.77442 0.710937 7.02734 0.710937 7.3418C0.710937 7.9707 1.22363 8.49024 1.8457 8.49024C2.15332 8.49024 2.44727 8.36035 2.68652 8.12109L6.99316 3.65723L11.3135 8.12109C11.5459 8.35352 11.8398 8.49023 12.1543 8.49023C12.7764 8.49023 13.2891 7.9707 13.2891 7.3418C13.2891 7.03418 13.1797 6.77441 12.9678 6.54883L7.94336 1.4082C7.64258 1.11426 7.35547 0.97754 7 0.97754Z" fill="#A8A8A8"/>
</svg>
