<svg width="20" height="20" viewBox="0 0 20 20" fill="none" xmlns="http://www.w3.org/2000/svg">
<path d="M19.6214 10.2222C19.6214 9.39998 19.5546 8.79998 19.4101 8.17776H10.011V11.8888H15.528C15.4168 12.8111 14.8162 14.2 13.4814 15.1332L13.4627 15.2575L16.4345 17.5572L16.6404 17.5777C18.5313 15.8333 19.6214 13.2666 19.6214 10.2222Z" fill="#4285F4"/>
<path d="M10.0109 20C12.7138 20 14.9829 19.1111 16.6403 17.5778L13.4813 15.1333C12.636 15.7222 11.5014 16.1333 10.0109 16.1333C7.36363 16.1333 5.11677 14.3889 4.31582 11.9778L4.19842 11.9877L1.10828 14.3766L1.06787 14.4889C2.71408 17.7555 6.09554 20 10.0109 20Z" fill="#34A853"/>
<path d="M4.31574 11.9778C4.10441 11.3556 3.9821 10.6889 3.9821 10C3.9821 9.31107 4.10441 8.64443 4.30463 8.02222L4.29903 7.8897L1.17017 5.46243L1.0678 5.51107C0.389315 6.86664 0 8.3889 0 10C0 11.6111 0.389315 13.1333 1.0678 14.4888L4.31574 11.9778Z" fill="#FBBC05"/>
<path d="M10.0109 3.86664C11.8907 3.86664 13.1587 4.67774 13.8818 5.35557L16.707 2.6C14.9719 0.988892 12.7138 0 10.0109 0C6.09553 0 2.71408 2.24442 1.06787 5.51106L4.3047 8.02221C5.11676 5.6111 7.36362 3.86664 10.0109 3.86664Z" fill="#EB4335"/>
</svg>
