<svg width="15" height="15" viewBox="0 0 15 15" fill="none" xmlns="http://www.w3.org/2000/svg">
<path d="M0.469727 13.2969C0.170898 13.5957 0.162109 14.1055 0.469727 14.4043C0.777344 14.7031 1.28711 14.7031 1.58594 14.4043L7.21094 8.7793L12.8359 14.4043C13.1348 14.7031 13.6533 14.7119 13.9521 14.4043C14.251 14.0967 14.251 13.5957 13.9521 13.2969L8.32715 7.66309L13.9521 2.03809C14.251 1.73926 14.2598 1.22949 13.9521 0.930664C13.6445 0.623047 13.1348 0.623047 12.8359 0.930664L7.21094 6.55566L1.58594 0.930664C1.28711 0.623047 0.768555 0.614258 0.469727 0.930664C0.170898 1.23828 0.170898 1.73926 0.469727 2.03809L6.09473 7.66309L0.469727 13.2969Z" fill="#666666"/>
</svg>
