<svg width="14" height="13" viewBox="0 0 14 13" fill="none" xmlns="http://www.w3.org/2000/svg">
<path d="M1.00781 11.375C0.742188 11.6406 0.734375 12.0938 1.00781 12.3594C1.28125 12.625 1.73438 12.625 2 12.3594L7 7.35938L12 12.3594C12.2656 12.625 12.7266 12.6328 12.9922 12.3594C13.2578 12.0859 13.2578 11.6406 12.9922 11.375L7.99219 6.36719L12.9922 1.36719C13.2578 1.10156 13.2656 0.648438 12.9922 0.382812C12.7188 0.109375 12.2656 0.109375 12 0.382812L7 5.38281L2 0.382812C1.73438 0.109375 1.27344 0.101562 1.00781 0.382812C0.742188 0.65625 0.742188 1.10156 1.00781 1.36719L6.00781 6.36719L1.00781 11.375Z" fill="#A8A8A8"/>
</svg>
