<svg width="16" height="16" viewBox="0 0 16 16" fill="none" xmlns="http://www.w3.org/2000/svg">
<path d="M6.64844 12.8203C7.95312 12.8203 9.15625 12.3984 10.1406 11.6953L13.8438 15.3984C14.0156 15.5703 14.2422 15.6562 14.4844 15.6562C14.9922 15.6562 15.3516 15.2656 15.3516 14.7656C15.3516 14.5312 15.2734 14.3125 15.1016 14.1406L11.4219 10.4531C12.1953 9.4375 12.6562 8.17969 12.6562 6.8125C12.6562 3.50781 9.95312 0.804688 6.64844 0.804688C3.35156 0.804688 0.640625 3.5 0.640625 6.8125C0.640625 10.1172 3.34375 12.8203 6.64844 12.8203ZM6.64844 11.5234C4.07031 11.5234 1.9375 9.39062 1.9375 6.8125C1.9375 4.23438 4.07031 2.10156 6.64844 2.10156C9.22656 2.10156 11.3594 4.23438 11.3594 6.8125C11.3594 9.39062 9.22656 11.5234 6.64844 11.5234Z" fill="#2C5EF6"/>
</svg>
