<svg width="14" height="11" viewBox="0 0 14 11" fill="none" xmlns="http://www.w3.org/2000/svg">
<path d="M2.625 0.5C1.88672 0.5 1.25781 0.773438 0.765625 1.26562C0.246094 1.78516 0 2.41406 0 3.125V8.375C0 9.11328 0.246094 9.74219 0.765625 10.2344C1.25781 10.7539 1.88672 11 2.625 11H4.92188C5.00391 11 5.08594 10.9727 5.14062 10.918C5.19531 10.8633 5.25 10.7812 5.25 10.6719V10.0156C5.25 9.93359 5.19531 9.85156 5.14062 9.79688C5.08594 9.74219 5.00391 9.6875 4.92188 9.6875H2.625C2.24219 9.6875 1.94141 9.57812 1.69531 9.30469C1.42188 9.05859 1.3125 8.75781 1.3125 8.375V3.125C1.3125 2.76953 1.42188 2.46875 1.69531 2.19531C1.94141 1.94922 2.24219 1.8125 2.625 1.8125H4.92188C5.00391 1.8125 5.08594 1.78516 5.14062 1.73047C5.19531 1.67578 5.25 1.59375 5.25 1.48438V0.828125C5.25 0.746094 5.19531 0.664062 5.14062 0.609375C5.08594 0.554688 5.00391 0.5 4.92188 0.5H2.625ZM8.94141 1.01953V1.04688C8.99609 0.992188 9.07812 0.9375 9.1875 0.9375C9.26953 0.9375 9.35156 0.964844 9.40625 1.01953L13.918 5.50391C13.9727 5.58594 14 5.66797 14 5.75C14 5.85938 13.9727 5.91406 13.918 5.96875L9.40625 10.4531C9.35156 10.5352 9.26953 10.5625 9.1875 10.5625C9.07812 10.5625 8.99609 10.5352 8.94141 10.4531L8.42188 9.93359C8.33984 9.87891 8.3125 9.79688 8.3125 9.6875C8.3125 9.60547 8.33984 9.52344 8.42188 9.46875L11.5117 6.46094H4.70312C4.59375 6.46094 4.51172 6.43359 4.45703 6.37891C4.40234 6.32422 4.375 6.24219 4.375 6.13281V5.36719C4.375 5.28516 4.40234 5.20312 4.45703 5.14844C4.51172 5.09375 4.59375 5.03906 4.70312 5.03906H11.5117L8.42188 2.03125C8.33984 1.97656 8.3125 1.92188 8.3125 1.8125C8.3125 1.73047 8.33984 1.64844 8.42188 1.56641L8.94141 1.01953Z" fill="#666666"/>
</svg>
