<svg xmlns="http://www.w3.org/2000/svg" fill="currentColor" viewBox="0 0 34 35">
  <path d="M15.4062 34.7031h3.1719c1.2969 0 2.3125-.8125 2.625-2.0625l.625-2.7344.4063-.1562 2.3906 1.4844c1.0938.6875 2.3906.5 3.3125-.4219l2.1875-2.1875c.9375-.9375 1.0938-2.2188.4062-3.2969l-1.4843-2.3906.1562-.375 2.7344-.6406c1.2344-.3125 2.0469-1.3281 2.0469-2.625v-3.0781c0-1.2969-.7969-2.3126-2.0469-2.625l-2.7187-.6563-.1563-.4063 1.4844-2.375c.6875-1.07808.5312-2.35932-.4063-3.31245l-2.1875-2.1875c-.9062-.92187-2.2031-1.09375-3.2969-.42187l-2.3906 1.46874-.4375-.15624-.625-2.75C20.8906 1.54688 19.875.75 18.5781.75h-3.1719c-1.3124 0-2.3281.79688-2.625 2.04688l-.625 2.75-.4374.15624-2.39068-1.46874c-1.10937-.67188-2.39062-.5-3.29687.42187l-2.20313 2.1875c-.92187.95313-1.09374 2.23437-.40624 3.31245l1.48437 2.375-.15625.4063-2.70312.6563C.796875 13.9062 0 14.9219 0 16.2188v3.0781c0 1.2969.8125 2.3125 2.04688 2.625l2.73437.6406.14063.375-1.48438 2.3906c-.6875 1.0781-.51562 2.3594.40625 3.2969l2.20313 2.1875c.90624.9219 2.20312 1.1094 3.29687.4219L11.7344 29.75l.4218.1562.625 2.7344c.2969 1.25 1.3126 2.0625 2.625 2.0625zm.4063-2.875c-.2656 0-.4063-.1093-.4375-.3437l-.9375-3.8438c-.9844-.2344-1.9375-.6406-2.7031-1.125l-3.37502 2.0782c-.20313.125-.39063.1093-.57813-.0782L6.14062 26.875c-.1875-.1719-.1875-.3594-.0625-.5625l2.07813-3.375c-.4375-.75-.84375-1.6875-1.07813-2.6719l-3.85937-.9218c-.23437-.0313-.35937-.1719-.35937-.4376v-2.3124c0-.2813.10937-.3907.35937-.4532l3.84375-.9062c.23438-1.0469.6875-2.0156 1.07812-2.7188L6.0625 9.17188c-.125-.21876-.125-.40626.04688-.59376l1.65624-1.625c.1875-.17187.35938-.20312.59376-.0625L11.7031 8.9375c.7031-.4375 1.75-.875 2.75-1.125l.9219-3.84375c.0312-.23437.1719-.35937.4375-.35937h2.3594c.2656 0 .3906.10937.4375.35937l.9375 3.85937c1.0156.25 1.9375.67188 2.7187 1.10938l3.3438-2.04688c.2344-.125.4062-.10937.5937.07813l1.6563 1.625c.1875.17187.1875.35937.0468.57813l-2.0624 3.34372c.375.7032.8437 1.6719 1.0781 2.7188l3.8437.9062c.25.0625.3438.1719.3438.4532v2.3124c0 .2657-.1094.4063-.3438.4376l-3.8594.9218c-.2343.9844-.6562 1.9375-1.0937 2.6719l2.0781 3.3594c.125.2187.125.3906-.0625.5625l-1.6406 1.6562c-.1875.1875-.375.2032-.5781.0782L22.25 26.5156c-.7812.4844-1.6719.875-2.7031 1.125l-.9375 3.8438c-.0469.2344-.1719.3437-.4375.3437h-2.3594zM17 23.6562c3.25 0 5.9219-2.6718 5.9219-5.9374 0-3.2344-2.6719-5.9063-5.9219-5.9063-3.2656 0-5.9531 2.6719-5.9531 5.9063 0 3.2656 2.6875 5.9374 5.9531 5.9374zm0-2.7031c-1.7812 0-3.2344-1.4531-3.2344-3.2343 0-1.75 1.4688-3.2032 3.2344-3.2032 1.7344 0 3.1875 1.4532 3.1875 3.2032 0 1.7656-1.4531 3.2343-3.1875 3.2343z"/>
</svg>
