<svg width="11" height="8" viewBox="0 0 11 8" fill="none" xmlns="http://www.w3.org/2000/svg">
  <path d="M0.842773 3.99512C0.842773 4.43457 1.15039 4.73242 1.60449 4.73242H6.92188L7.98145 4.68359L6.91699 5.60156L5.80371 6.71484C5.67188 6.85156 5.57422 7.02246 5.57422 7.24219C5.57422 7.6377 5.8623 7.94043 6.28223 7.94043C6.47266 7.94043 6.65332 7.8623 6.80957 7.71094L9.9834 4.53711C10.1201 4.40039 10.2031 4.19531 10.2031 3.99512C10.2031 3.79492 10.1201 3.58984 9.9834 3.45312L6.80957 0.28418C6.65332 0.132813 6.47266 0.0546875 6.28223 0.0546875C5.8623 0.0546875 5.57422 0.357422 5.57422 0.75293C5.57422 0.972656 5.67188 1.14355 5.80371 1.27539L6.91699 2.38867L7.98145 3.30664L6.92188 3.2627H1.60449C1.15039 3.2627 0.842773 3.55566 0.842773 3.99512Z" fill="currentColor"/>
</svg>
