<svg width="12" height="12" viewBox="0 0 9 14" fill="none" xmlns="http://www.w3.org/2000/svg">
  <path
    d="M8.02246 7C8.01562 6.6377 7.88574 6.34375 7.5918 6.05664L2.44434 1.03223C2.22559 0.813477 1.97266 0.710938 1.6582 0.710938C1.0293 0.710938 0.509766 1.22363 0.509766 1.8457C0.509766 2.15332 0.639648 2.44727 0.878906 2.68652L5.34277 6.99316L0.878906 11.3135C0.646484 11.5459 0.509766 11.8398 0.509766 12.1543C0.509766 12.7764 1.0293 13.2891 1.6582 13.2891C1.96582 13.2891 2.22559 13.1797 2.45117 12.9678L7.5918 7.94336C7.88574 7.64258 8.02246 7.35547 8.02246 7Z"
    fill="currentColor"
  />
</svg>

