<svg width="55" height="46" viewBox="0 0 55 46" fill="none" xmlns="http://www.w3.org/2000/svg">
    <path d="M5.73438 37.6797H20.6641L19.8906 43.5156H17.6406C17.1484 43.5156 16.75 43.8906 16.75 44.3828C16.75 44.8984 17.1484 45.2734 17.6406 45.2734H37.3984C37.8906 45.2734 38.2891 44.8984 38.2891 44.3828C38.2891 43.8906 37.8906 43.5156 37.3984 43.5156H35.1484L34.3984 37.6797H49.3047C52.4688 37.6797 54.0625 36.0859 54.0625 32.9219V5.71094C54.0625 2.54688 52.4688 0.953125 49.3047 0.953125H5.73438C2.57031 0.953125 0.976562 2.54688 0.976562 5.71094V32.9219C0.976562 36.0859 2.57031 37.6797 5.73438 37.6797ZM3.97656 28.6562C3.13281 28.6562 2.71094 28.2578 2.71094 27.4141V5.78125C2.71094 3.69531 3.74219 2.6875 5.82812 2.6875H49.2109C51.2969 2.6875 52.3281 3.69531 52.3281 5.78125V27.4141C52.3281 28.2578 51.9062 28.6562 51.0859 28.6562H3.97656ZM27.5312 35.2891C26.5469 35.2891 25.8203 34.5625 25.8203 33.5781C25.8203 32.6875 26.5469 31.8906 27.5312 31.8906C28.4219 31.8906 29.2422 32.6875 29.2422 33.5781C29.2422 34.5625 28.4219 35.2891 27.5312 35.2891Z" fill="white" fill-opacity="0.8"/>
</svg>
