<svg width="48" height="48" viewBox="0 0 48 48" fill="none" xmlns="http://www.w3.org/2000/svg">
    <circle cx="24" cy="24" r="24" fill="#F39958"/>
    <path d="M23.4375 28.8984C24.6328 28.8984 25.2891 28.1836 25.3242 26.9531L25.5352 16.0078C25.5469 15.8438 25.5586 15.668 25.5586 15.5391C25.5586 14.2148 24.7266 13.4297 23.4375 13.4297C22.1484 13.4297 21.3047 14.2148 21.3047 15.5391C21.3047 15.668 21.3164 15.8438 21.3164 16.0078L21.5391 26.9531C21.5859 28.1836 22.2305 28.8984 23.4375 28.8984ZM23.4258 35.8477C24.7734 35.8477 25.8633 34.8164 25.8633 33.5156C25.8633 32.2148 24.7734 31.1719 23.4258 31.1719C22.0781 31.1719 20.9883 32.2148 20.9883 33.5156C20.9883 34.8164 22.0781 35.8477 23.4258 35.8477Z" fill="white"/>
</svg>
