<svg width="16" height="17" viewBox="0 0 16 17" fill="none" xmlns="http://www.w3.org/2000/svg">
<path d="M8 16.3281C12.3594 16.3281 15.9688 12.7109 15.9688 8.35938C15.9688 4 12.3516 0.390625 7.99219 0.390625C3.64062 0.390625 0.03125 4 0.03125 8.35938C0.03125 12.7109 3.64844 16.3281 8 16.3281ZM3.61719 6.75781C3.25781 6.75781 3 6.53125 3 6.1875C3 5.84375 3.25781 5.61719 3.61719 5.61719H12.3984C12.75 5.61719 13.0156 5.84375 13.0156 6.1875C13.0156 6.53125 12.75 6.75781 12.3984 6.75781H3.61719ZM4.8125 9.42969C4.44531 9.42969 4.19531 9.20312 4.19531 8.85156C4.19531 8.50781 4.44531 8.28125 4.8125 8.28125H11.2031C11.5625 8.28125 11.8125 8.50781 11.8125 8.85156C11.8125 9.20312 11.5625 9.42969 11.2031 9.42969H4.8125ZM6.05469 12.1016C5.69531 12.1016 5.44531 11.8672 5.44531 11.5234C5.44531 11.1875 5.69531 10.9609 6.05469 10.9609H9.95312C10.3125 10.9609 10.5703 11.1875 10.5703 11.5234C10.5703 11.8672 10.3125 12.1016 9.95312 12.1016H6.05469Z" fill="#2C5EF6"/>
</svg>
