<svg width="16" height="16" viewBox="0 0 16 16" fill="none" xmlns="http://www.w3.org/2000/svg">
    <path d="M8 15.3105C11.9717 15.3105 15.2393 12.043 15.2393 8.07129C15.2393 4.09277 11.9717 0.825195 7.99316 0.825195C4.01465 0.825195 0.753906 4.09277 0.753906 8.07129C0.753906 12.043 4.02148 15.3105 8 15.3105ZM7.99316 5.87695C7.40527 5.87695 6.91309 5.38477 6.91309 4.79688C6.91309 4.18848 7.40527 3.70996 7.99316 3.70996C8.58105 3.70996 9.06641 4.18848 9.06641 4.79688C9.06641 5.38477 8.58105 5.87695 7.99316 5.87695ZM6.69434 11.9199C6.31152 11.9199 6.01074 11.6533 6.01074 11.25C6.01074 10.8877 6.31152 10.5938 6.69434 10.5938H7.48047V8.16016H6.83105C6.44141 8.16016 6.14746 7.88672 6.14746 7.49707C6.14746 7.12793 6.44141 6.84082 6.83105 6.84082H8.23242C8.72461 6.84082 8.97754 7.17578 8.97754 7.69531V10.5938H9.59961C9.98242 10.5938 10.2832 10.8877 10.2832 11.25C10.2832 11.6533 9.98242 11.9199 9.59961 11.9199H6.69434Z" fill="currentColor"/>
</svg>
