<svg width="24" height="24" viewBox="0 0 14 14" fill="none" xmlns="http://www.w3.org/2000/svg">
  <path
    d="M0.90625 11.9922C0.523438 12.375 0.515625 13.0547 0.914062 13.4531C1.32031 13.8516 2 13.8438 2.375 13.4688L7 8.84375L11.6172 13.4609C12.0078 13.8516 12.6797 13.8516 13.0781 13.4531C13.4766 13.0469 13.4766 12.3828 13.0859 11.9922L8.46875 7.375L13.0859 2.75C13.4766 2.35938 13.4844 1.6875 13.0781 1.28906C12.6797 0.890625 12.0078 0.890625 11.6172 1.28125L7 5.89844L2.375 1.28125C2 0.898438 1.3125 0.882812 0.914062 1.28906C0.515625 1.6875 0.523438 2.375 0.90625 2.75L5.52344 7.375L0.90625 11.9922Z"
    fill="currentColor"
  />
</svg>
