<?xml version="1.0" standalone="no"?>
<!DOCTYPE svg PUBLIC "-//W3C//DTD SVG 20010904//EN"
 "http://www.w3.org/TR/2001/REC-SVG-20010904/DTD/svg10.dtd">
<svg version="1.0" xmlns="http://www.w3.org/2000/svg"
 width="1056.000000pt" height="1056.000000pt" viewBox="0 0 1056.000000 1056.000000"
 preserveAspectRatio="xMidYMid meet">
<metadata>
Created by potrace 1.11, written by Peter Selinger 2001-2013
</metadata>
<g transform="translate(0.000000,1056.000000) scale(0.100000,-0.100000)"
fill="#000000" stroke="none">
<path d="M4109 9411 c12 -16 21 -32 21 -36 0 -3 10 -21 23 -38 12 -18 27 -41
34 -52 6 -11 58 -94 115 -185 57 -90 105 -169 107 -175 2 -5 7 -12 10 -15 4
-3 47 -70 96 -150 49 -80 91 -147 94 -150 3 -3 13 -17 21 -32 8 -15 42 -71 75
-123 33 -53 65 -104 70 -113 16 -28 174 -281 220 -352 23 -36 70 -112 105
-170 35 -58 73 -118 85 -135 25 -37 40 -61 61 -99 17 -31 107 -173 121 -191 4
-6 17 -26 27 -45 21 -37 96 -156 127 -202 11 -15 19 -29 19 -32 0 -2 18 -32
40 -65 22 -33 40 -63 40 -66 0 -3 16 -28 35 -55 19 -27 35 -52 35 -56 0 -3 13
-24 29 -47 15 -23 131 -207 257 -410 126 -202 237 -380 246 -395 10 -15 25
-40 34 -57 9 -16 33 -55 53 -85 20 -31 41 -64 48 -75 19 -32 183 -296 218
-350 97 -151 235 -378 235 -386 0 -5 5 -9 10 -9 6 0 10 -6 10 -14 0 -7 7 -19
16 -26 8 -8 22 -27 30 -44 8 -17 39 -69 69 -116 30 -47 75 -119 100 -160 26
-41 73 -117 106 -169 32 -51 59 -95 59 -97 0 -2 18 -30 39 -62 22 -31 45 -69
52 -85 7 -15 16 -27 21 -27 4 0 8 -7 8 -15 0 -8 5 -15 10 -15 6 0 10 -5 10
-11 0 -6 14 -30 30 -54 16 -24 30 -46 30 -49 0 -9 124 -201 132 -204 5 -2 8
-8 8 -14 0 -6 14 -30 30 -55 17 -24 30 -46 30 -49 0 -8 75 -119 83 -122 4 -2
7 -9 7 -15 0 -6 20 -41 45 -78 25 -37 45 -70 45 -73 0 -3 15 -28 33 -54 18
-26 41 -64 52 -84 11 -21 23 -38 27 -38 5 0 8 -6 8 -12 0 -7 7 -22 16 -33 15
-20 27 -20 1204 -21 l1190 0 -14 20 c-7 12 -60 98 -118 191 -239 385 -298 481
-308 495 -42 64 -90 142 -90 147 0 4 -6 14 -14 22 -8 9 -21 27 -28 41 -7 14
-34 57 -58 95 -25 39 -44 73 -42 78 1 4 -3 7 -8 7 -6 0 -15 10 -20 23 -5 12
-29 52 -52 89 -123 193 -174 276 -187 300 -7 16 -17 28 -22 28 -5 0 -9 6 -9
14 0 8 -6 21 -12 28 -7 8 -20 25 -27 38 -54 92 -106 176 -111 180 -6 5 -66
105 -85 141 -5 10 -13 19 -17 19 -5 0 -8 5 -8 11 0 6 -13 30 -30 54 -16 24
-30 48 -30 54 0 6 -3 11 -8 11 -4 0 -12 9 -17 19 -13 25 -63 107 -121 196 -25
39 -47 78 -51 88 -3 9 -9 17 -14 17 -5 0 -9 4 -9 9 0 5 -32 58 -70 118 -39 59
-73 115 -77 123 -4 8 -14 26 -24 40 -52 77 -219 351 -219 359 0 5 -3 11 -8 13
-4 2 -21 26 -38 53 -17 28 -76 122 -131 210 -55 88 -126 203 -159 255 -32 52
-61 97 -64 100 -10 10 -41 65 -47 83 -3 9 -9 17 -14 17 -5 0 -9 7 -9 15 0 8
-4 15 -10 15 -5 0 -10 5 -10 11 0 6 -13 30 -30 54 -16 24 -30 46 -30 50 0 3
-5 11 -11 18 -18 20 -269 428 -269 437 0 5 -4 10 -8 12 -5 2 -24 28 -43 59
-103 171 -124 204 -129 209 -3 3 -26 38 -50 79 -25 40 -55 90 -67 110 -13 20
-26 43 -30 51 -3 8 -9 17 -13 20 -3 3 -24 34 -45 70 -21 36 -42 67 -45 70 -4
3 -9 10 -11 15 -2 6 -35 60 -72 120 -38 61 -74 119 -80 130 -7 11 -14 22 -17
25 -8 8 -29 43 -42 70 -7 14 -19 31 -26 39 -8 8 -18 24 -23 35 -5 12 -69 117
-144 235 -74 117 -135 215 -135 217 0 2 -16 27 -35 54 -19 28 -33 50 -30 50 3
0 -3 10 -15 22 -11 12 -20 28 -20 35 0 7 -3 13 -8 13 -4 0 -12 10 -17 23 l-10
22 -1193 3 -1193 2 20 -29z"/>
<path d="M3785 9204 c-38 -63 -77 -127 -86 -142 -9 -15 -60 -96 -113 -180 -53
-84 -96 -155 -96 -158 0 -3 -11 -20 -25 -38 -14 -18 -25 -36 -25 -40 0 -4 -11
-22 -25 -40 -14 -18 -25 -36 -25 -40 0 -3 -16 -29 -35 -56 -19 -27 -36 -53
-37 -57 0 -5 -24 -44 -52 -88 -28 -44 -60 -97 -71 -117 -11 -21 -22 -38 -26
-38 -3 0 -14 -18 -25 -40 -10 -22 -22 -40 -26 -40 -5 0 -8 -5 -8 -10 0 -6 -8
-23 -19 -38 -45 -67 -141 -224 -141 -233 0 -5 -4 -9 -9 -9 -5 0 -13 -10 -17
-22 -4 -13 -10 -25 -13 -28 -4 -3 -31 -45 -61 -95 -30 -49 -64 -103 -75 -120
-36 -53 -45 -70 -51 -87 -4 -10 -10 -18 -14 -18 -4 0 -11 -10 -17 -23 -9 -18
-6 -30 13 -62 14 -22 27 -48 30 -57 4 -10 10 -18 14 -18 5 0 12 -10 16 -22 4
-13 10 -25 13 -28 11 -9 171 -270 171 -279 0 -5 4 -11 9 -13 8 -3 84 -122 105
-165 6 -13 14 -23 19 -23 4 0 7 -4 7 -9 0 -6 14 -30 30 -54 17 -25 30 -49 30
-55 0 -6 4 -12 8 -14 10 -4 72 -105 72 -118 0 -6 4 -10 8 -10 5 0 15 -12 22
-27 8 -16 26 -46 41 -68 14 -22 55 -87 91 -145 36 -58 127 -204 202 -325 76
-121 143 -229 149 -240 7 -11 29 -45 50 -77 20 -31 37 -62 37 -67 0 -6 5 -11
10 -11 6 0 10 -4 10 -9 0 -9 58 -109 70 -121 3 -3 10 -14 17 -25 7 -11 37 -60
67 -110 31 -49 64 -103 73 -120 10 -16 20 -32 24 -35 11 -10 69 -111 69 -120
0 -6 4 -10 9 -10 5 0 14 -13 21 -29 6 -16 19 -37 28 -48 9 -10 26 -34 36 -53
11 -19 43 -71 71 -115 28 -44 54 -85 56 -91 9 -22 174 -279 181 -282 4 -2 8
-9 8 -15 0 -6 19 -40 43 -76 23 -36 47 -73 52 -83 6 -9 38 -63 73 -118 34 -55
62 -105 62 -110 0 -6 4 -10 8 -10 5 0 14 -10 21 -22 21 -40 307 -500 377 -609
24 -36 47 -74 51 -85 4 -10 15 -28 25 -38 10 -11 18 -26 18 -33 0 -7 4 -13 9
-13 5 0 14 -13 21 -30 7 -16 16 -30 21 -30 5 0 9 -5 9 -11 0 -6 39 -73 88
-150 48 -78 107 -173 131 -212 25 -40 48 -73 53 -75 4 -2 8 -9 8 -15 0 -6 11
-27 24 -46 27 -41 196 -311 211 -338 30 -53 111 -178 117 -181 5 -2 8 -8 8
-14 0 -5 14 -29 30 -53 17 -24 30 -46 30 -49 0 -3 29 -50 65 -105 36 -55 65
-103 65 -105 0 -5 43 -73 58 -91 4 -5 11 -17 15 -25 10 -19 24 -42 68 -110 19
-30 44 -71 55 -90 10 -19 21 -37 24 -40 8 -7 44 -64 45 -70 2 -11 60 -99 66
-100 8 0 69 96 69 109 0 6 3 11 8 11 4 0 23 27 41 60 19 33 39 60 43 60 4 0 7
3 6 8 -1 4 13 32 33 62 19 30 53 84 75 120 21 36 43 70 47 75 8 10 148 232
182 289 11 18 90 144 175 279 167 266 171 271 214 344 16 26 32 50 36 53 3 3
21 30 38 60 43 72 53 89 77 125 11 16 25 38 30 47 6 10 35 58 66 107 l57 89
-69 109 c-38 59 -72 116 -75 126 -4 9 -10 17 -15 17 -5 0 -9 4 -9 10 0 5 -20
41 -45 79 -25 38 -45 74 -45 80 0 6 -4 11 -8 11 -5 0 -15 12 -23 28 -7 15 -34
59 -59 97 -25 39 -50 79 -57 90 -28 47 -211 340 -245 393 -21 31 -41 64 -45
72 -4 8 -31 52 -60 97 -29 44 -53 86 -53 92 0 6 -3 11 -8 11 -4 0 -12 9 -17
20 -6 11 -41 70 -80 130 -38 61 -77 123 -86 138 -9 15 -82 132 -163 260 -80
129 -146 238 -146 243 0 5 -4 9 -8 9 -5 0 -16 15 -26 33 -26 50 -51 89 -152
247 -12 19 -76 123 -143 230 -66 107 -124 200 -128 205 -5 6 -34 53 -66 105
-32 52 -64 104 -70 114 -7 11 -31 49 -54 84 -24 35 -43 66 -43 70 0 8 -52 85
-63 93 -5 3 -9 10 -9 15 -1 5 -12 26 -24 46 -13 21 -24 42 -24 48 0 5 -4 10
-10 10 -5 0 -10 5 -10 10 0 6 -5 16 -10 23 -15 17 -90 137 -90 143 0 3 -5 10
-10 17 -21 24 -90 138 -90 147 0 6 -4 10 -8 10 -4 0 -21 25 -37 55 -17 30 -33
55 -36 55 -4 0 -9 8 -13 18 -3 9 -14 29 -23 44 -10 15 -38 60 -62 100 -25 40
-48 75 -53 76 -4 2 -8 8 -8 12 0 5 -31 59 -70 120 -38 61 -70 115 -70 120 0 6
-4 10 -10 10 -5 0 -10 7 -10 15 0 8 -4 15 -10 15 -5 0 -10 5 -10 10 0 9 -47
87 -60 100 -3 3 -10 14 -16 25 -28 51 -39 70 -45 75 -3 3 -19 28 -34 55 -16
28 -32 52 -35 55 -4 3 -9 12 -13 20 -4 8 -26 45 -49 82 -115 180 -265 420
-280 448 -9 17 -22 39 -30 48 -7 9 -20 28 -28 42 -24 41 -188 304 -197 315
-16 21 -44 70 -50 88 -3 9 -9 17 -13 17 -4 0 -13 14 -20 30 -7 17 -16 30 -21
30 -5 0 -9 4 -9 9 0 17 -199 331 -209 331 -3 0 -37 -52 -76 -116z"/>
<path d="M2475 7099 c-28 -44 -66 -106 -86 -137 -20 -31 -79 -127 -132 -212
-53 -85 -101 -160 -107 -167 -5 -7 -15 -24 -22 -38 -6 -14 -15 -25 -20 -25 -4
0 -8 -9 -8 -20 0 -11 -3 -20 -8 -20 -4 0 -29 -37 -57 -82 -27 -46 -53 -87 -58
-93 -12 -16 -216 -338 -225 -355 -4 -9 -59 -98 -122 -198 -148 -234 -140 -222
-174 -279 -16 -26 -51 -81 -77 -122 -48 -73 -48 -73 -28 -94 10 -11 19 -24 19
-28 0 -8 173 -286 190 -306 6 -7 15 -23 20 -35 11 -24 31 -60 40 -68 8 -8 90
-140 90 -146 0 -3 5 -10 10 -17 18 -21 139 -211 155 -242 8 -16 42 -72 75
-124 33 -51 60 -95 60 -97 0 -3 5 -10 10 -17 14 -15 74 -110 75 -117 0 -3 8
-16 18 -30 36 -50 97 -151 97 -160 0 -4 4 -10 8 -12 4 -1 21 -25 37 -53 15
-27 31 -52 34 -55 4 -3 15 -22 26 -43 11 -21 27 -46 35 -55 8 -9 21 -28 27
-42 7 -14 38 -63 68 -110 30 -47 58 -93 61 -102 4 -10 10 -18 15 -18 5 0 9 -5
9 -10 0 -6 14 -32 32 -58 l32 -48 1187 0 1188 0 -11 20 c-19 35 -62 101 -71
107 -5 3 -8 8 -6 10 1 2 -10 24 -26 49 -61 99 -159 257 -180 290 -60 95 -103
164 -135 216 -19 32 -63 102 -97 156 -35 55 -63 101 -63 104 0 2 -17 29 -38
61 -79 119 -112 173 -112 183 0 5 -4 10 -10 10 -5 0 -10 5 -10 11 0 6 -13 30
-30 54 -16 24 -30 48 -30 54 0 6 -4 11 -10 11 -5 0 -10 7 -10 15 0 8 -4 15
-10 15 -5 0 -10 5 -10 11 0 6 -13 29 -28 52 -15 23 -34 54 -41 70 -8 15 -18
27 -23 27 -4 0 -8 4 -8 9 0 12 -82 145 -92 149 -5 2 -8 8 -8 14 0 5 -13 29
-30 53 -16 24 -30 48 -30 54 0 6 -4 11 -10 11 -5 0 -10 4 -10 9 0 11 -64 118
-85 141 -8 9 -15 19 -15 22 0 3 -31 56 -70 117 -38 62 -70 116 -70 120 0 5 -4
11 -8 13 -7 2 -53 75 -97 150 -41 70 -121 194 -127 196 -4 2 -8 8 -8 14 0 5
-10 24 -22 41 -13 18 -23 35 -23 39 0 4 -7 16 -16 26 -9 11 -18 23 -20 29 -3
8 -118 192 -181 291 -10 15 -22 36 -28 47 -5 11 -37 62 -70 113 -33 51 -60 97
-60 103 0 5 -4 9 -10 9 -5 0 -10 5 -10 10 0 9 -47 87 -60 100 -3 3 -14 21 -24
40 -11 19 -22 37 -25 40 -3 3 -12 15 -18 28 -32 55 -39 67 -55 86 -10 11 -18
23 -18 27 0 9 -157 259 -173 276 -10 10 -23 -5 -62 -68z"/>
<path d="M1163 4993 c-15 -27 -31 -52 -35 -58 -24 -30 -56 -85 -50 -85 4 0 2
-4 -3 -8 -11 -7 -135 -199 -135 -208 0 -3 -4 -10 -10 -17 -20 -24 -79 -117
-74 -117 3 0 0 -6 -6 -12 -15 -17 -100 -149 -100 -154 0 -3 -26 -44 -57 -92
-31 -48 -55 -89 -54 -91 2 -2 -1 -7 -6 -10 -5 -3 -69 -103 -143 -221 -74 -118
-138 -217 -142 -218 -5 -2 -6 -8 -2 -13 3 -5 0 -9 -5 -9 -6 0 -11 -6 -11 -13
0 -8 -11 -27 -24 -42 -14 -16 -23 -32 -20 -36 2 -4 0 -9 -5 -11 -8 -3 -83
-119 -121 -186 -8 -15 -18 -28 -22 -30 -5 -2 -8 -8 -8 -14 0 -5 -14 -31 -32
-56 -57 -84 -65 -97 -81 -128 -15 -30 -15 -33 9 -67 13 -20 24 -40 24 -45 0
-5 9 -17 20 -27 11 -10 20 -24 20 -32 0 -7 5 -13 10 -13 6 0 10 -5 10 -10 0
-6 18 -38 40 -71 22 -33 40 -65 40 -70 0 -5 5 -9 10 -9 6 0 10 -5 10 -10 0 -6
24 -47 53 -93 66 -103 119 -186 132 -209 11 -19 81 -130 159 -253 28 -45 56
-90 63 -100 6 -11 40 -65 75 -119 35 -55 65 -104 67 -110 2 -6 15 -25 28 -42
12 -17 23 -36 23 -42 0 -7 4 -12 8 -12 5 0 15 -12 23 -27 7 -16 32 -57 55 -93
23 -36 94 -148 157 -250 64 -102 122 -193 129 -203 14 -19 28 -23 28 -6 0 5
17 36 38 67 20 32 42 66 49 77 54 87 79 129 88 143 54 91 90 148 94 152 3 3
14 19 24 35 49 84 151 251 156 255 3 3 15 21 25 40 11 19 22 37 25 40 8 7 29
40 44 70 6 14 16 30 20 35 12 15 196 307 204 325 4 8 37 63 75 122 37 59 68
112 68 117 0 6 3 11 8 11 4 0 19 21 35 48 15 26 33 56 40 66 44 71 83 133 92
148 5 9 26 44 46 76 l37 60 -26 43 c-14 24 -28 46 -32 49 -4 3 -9 12 -13 20
-8 18 -28 51 -124 205 -40 63 -73 119 -73 124 0 5 -4 11 -8 13 -7 3 -44 60
-209 328 -18 30 -39 64 -46 75 -6 10 -36 57 -64 102 -29 46 -53 87 -53 91 0 5
-8 17 -17 28 -10 11 -24 30 -30 42 -7 12 -19 32 -25 44 -7 12 -17 27 -21 32
-4 6 -28 45 -54 86 -25 41 -56 91 -68 110 -12 19 -43 68 -69 108 -25 40 -46
77 -46 82 0 6 -4 10 -9 10 -5 0 -11 8 -15 18 -7 20 -45 85 -55 92 -3 3 -12 16
-19 30 -24 48 -102 170 -108 170 -2 0 -16 -21 -31 -47z"/>
<path d="M2590 3003 c-9 -7 -23 -26 -30 -43 -7 -16 -17 -30 -22 -30 -5 0 -6
-4 -3 -10 3 -5 2 -10 -3 -10 -5 0 -12 -8 -16 -17 -3 -10 -44 -79 -91 -153 -75
-118 -171 -273 -208 -335 -7 -11 -21 -33 -32 -50 -11 -16 -25 -39 -31 -50 -16
-30 -181 -298 -191 -311 -9 -12 -13 -18 -89 -144 -32 -52 -100 -162 -151 -243
-51 -82 -93 -150 -93 -152 0 -3 -25 -42 -55 -89 -30 -46 -55 -89 -55 -95 0 -6
-4 -11 -10 -11 -5 0 -10 -7 -10 -15 0 -8 -4 -15 -10 -15 -5 0 -10 -6 -10 -14
0 -7 -7 -19 -15 -26 -9 -7 -13 -15 -11 -18 3 -2 -1 -11 -9 -19 -8 -8 -15 -19
-15 -24 0 -5 461 -9 1180 -9 l1180 0 12 25 c6 14 14 25 18 25 4 0 15 18 26 40
10 22 22 40 27 40 4 0 7 7 7 15 0 8 5 15 10 15 6 0 10 5 10 10 0 6 17 37 37
68 52 79 56 85 76 121 10 18 39 64 65 104 54 83 68 106 78 127 4 8 17 29 28
45 12 17 27 39 33 50 7 11 25 40 40 65 15 25 65 104 110 175 45 72 101 163
125 202 24 40 46 73 51 73 4 0 7 6 7 14 0 8 6 21 13 28 7 7 16 20 20 28 4 8
15 27 25 42 21 32 92 146 161 258 29 47 85 137 125 200 41 63 72 117 69 119
-2 3 -533 5 -1180 5 -904 1 -1180 -2 -1193 -11z"/>
<path d="M7936 3000 c-13 -16 -39 -56 -103 -160 -22 -36 -86 -137 -141 -225
-136 -217 -155 -248 -258 -413 -49 -78 -96 -153 -104 -166 -8 -13 -28 -46 -44
-73 -16 -26 -32 -50 -36 -53 -4 -3 -10 -15 -14 -27 -4 -13 -12 -23 -17 -23 -5
0 -9 -5 -9 -11 0 -6 -15 -34 -34 -62 -52 -81 -117 -184 -181 -287 -32 -52 -64
-102 -72 -111 -7 -9 -10 -19 -6 -22 3 -4 1 -7 -5 -7 -7 0 -12 -6 -12 -14 0 -8
-3 -16 -7 -18 -5 -1 -30 -39 -56 -82 -27 -44 -56 -90 -64 -103 l-15 -23 1189
0 1190 0 27 42 c14 24 82 133 151 243 68 110 129 205 135 212 5 7 10 14 10 17
0 7 83 140 91 146 3 3 12 16 19 30 7 14 27 48 45 75 18 28 97 154 175 280 79
127 163 260 187 298 24 37 49 78 55 92 6 14 15 25 20 25 4 0 8 4 8 10 0 11
100 172 113 181 5 3 9 10 10 15 0 5 20 39 44 77 24 37 43 71 43 75 0 4 11 20
25 36 14 16 23 32 20 35 -3 2 -537 5 -1186 5 -1038 1 -1182 -1 -1193 -14z"/>
</g>
</svg>
